<?xml version="1.0" encoding="UTF-8"?>
<svg id="Layer_1" data-name="Layer 1" xmlns="http://www.w3.org/2000/svg" viewBox="0 0 2800.84 1705.15">
  <defs>
    <style>
      .cls-1 {
        fill: #0859a8;
        stroke-width: 0px;
      }
    </style>
  </defs>
  <path class="cls-1" d="m1793.64,691.07c0-46.6-37.29-84.38-83.29-84.38-13.71,0-26.63,3.38-38.03,9.32l-79.56-139.61c22.94-15.03,38.14-41.16,38.14-70.9,0-46.6-37.29-84.38-83.29-84.38-29.51,0-55.41,15.56-70.2,39.01h-281.63l-188.59,330.95,188.59,330.95h378.2l140.56-246.67c44.05-2.22,79.09-39.1,79.09-84.28Zm-128.43-70.9c-10.05,6.58-18.61,15.3-25.06,25.52h-184.93c-6.48-10.24-15.08-18.95-25.18-25.53l79.55-139.6c11.4,5.94,24.32,9.32,38.03,9.32s26.63-3.38,38.03-9.32l79.56,139.61Zm-280.12,155.4c13.67,0,26.55-3.36,37.93-9.27l94,164.96h-264.13l94.4-164.89c11.35,5.87,24.18,9.2,37.79,9.2Zm27.19-84.38c0,15.6-12.2,28.28-27.19,28.28s-27.19-12.69-27.19-28.28,12.2-28.28,27.19-28.28,27.19,12.69,27.19,28.28Zm135.35-313.97c14.99,0,27.19,12.69,27.19,28.28s-12.2,28.28-27.19,28.28-27.19-12.69-27.19-28.28,12.2-28.28,27.19-28.28Zm-45.15,99.18l-79.56,139.62c-11.35-5.88-24.2-9.21-37.83-9.21s-26.54,3.35-37.92,9.26l-94.34-165.19h224.59c6.45,10.22,15.01,18.94,25.06,25.52Zm-390.82,214.68l134.27-235.64,94.12,164.79c-23,15.02-38.24,41.18-38.24,70.96s15.3,56.03,38.36,71.04l-94.2,164.54-134.31-235.69Zm412.23,235.58l-93.74-164.51c10.13-6.62,18.75-15.39,25.23-25.7h176.91l-108.39,190.21Zm186.47-207.3c-14.99,0-27.19-12.69-27.19-28.28s12.2-28.28,27.19-28.28,27.19,12.69,27.19,28.28-12.2,28.28-27.19,28.28Z"/>
  <g>
    <path class="cls-1" d="m1064.54,1304.63l-2.47,12.12h-101.92l56.4-64.56c22.26-25.23,34.63-41.06,34.63-60.11,0-22.76-17.07-39.09-38.84-39.09s-38.59,16.57-38.59,38.34c0,7.42,1.98,13.85,4.95,20.53l-12.62,2.47c-3.46-7.17-5.19-14.84-5.19-23.01,0-28.45,22.26-50.46,51.45-50.46s51.7,21.52,51.7,51.21c0,20.53-11.38,37.6-37.35,67.04l-40.08,45.52h77.92Z"/>
    <path class="cls-1" d="m1088.79,1230.17c0-48.24,22.51-88.81,63.08-88.81s63.08,40.57,63.08,88.81-22.51,88.81-63.08,88.81-63.08-40.57-63.08-88.81Zm113.05,0c0-41.06-16.57-76.93-49.97-76.93s-49.97,35.87-49.97,76.93,16.57,76.93,49.97,76.93,49.97-35.87,49.97-76.93Z"/>
    <path class="cls-1" d="m1341.48,1304.63l-2.47,12.12h-101.92l56.4-64.56c22.26-25.23,34.63-41.06,34.63-60.11,0-22.76-17.07-39.09-38.84-39.09s-38.59,16.57-38.59,38.34c0,7.42,1.98,13.85,4.95,20.53l-12.62,2.47c-3.46-7.17-5.19-14.84-5.19-23.01,0-28.45,22.26-50.46,51.45-50.46s51.7,21.52,51.7,51.21c0,20.53-11.38,37.6-37.35,67.04l-40.08,45.52h77.92Z"/>
    <path class="cls-1" d="m1476.55,1269.75h-24v47h-12.37v-47h-83.61l95.98-132.1v120.47h24v11.63Zm-36.36-11.63v-83.61l-60.11,83.61h60.11Z"/>
    <path class="cls-1" d="m1670.74,1200.73l-9.4,53.43h29.44v11.13h-31.17l-9.15,51.45h-12.37l9.15-51.45h-50.46l-9.15,51.45h-12.37l9.15-51.45h-29.19v-11.13h30.92l9.4-53.43h-28.94v-11.13h30.92l8.16-46.01h12.37l-8.16,46.01h50.46l8.16-46.01h12.37l-8.16,46.01h29.44v11.13h-31.42Zm-12.37,0h-50.46l-9.4,53.43h50.46l9.4-53.43Z"/>
    <path class="cls-1" d="m1835.74,1304.63l-2.47,12.12h-101.92l56.4-64.56c22.26-25.23,34.63-41.06,34.63-60.11,0-22.76-17.07-39.09-38.84-39.09s-38.59,16.57-38.59,38.34c0,7.42,1.98,13.85,4.95,20.53l-12.62,2.47c-3.46-7.17-5.2-14.84-5.2-23.01,0-28.45,22.26-50.46,51.45-50.46s51.7,21.52,51.7,51.21c0,20.53-11.38,37.6-37.35,67.04l-40.08,45.52h77.92Z"/>
  </g>
</svg>